# xmcd CD database file
#
# Track frame offsets:
#	150
#	21757
#	42265
#	60680
#	94097
#	116072
#	142482
#	164470
#
# Disc length: 2539 seconds
#
# Revision: 0
# Processed by: cddbd v1.5PL3 Copyright (c) Steve Scherf et al.
# Submitted via: CDex 1.51
#
DISCID=7209e908
DTITLE=Masato Imazu - Hard Times
DYEAR=1900
DGENRE=Jazz
TTITLE0=flamingo
TTITLE1=whisper not
TTITLE2=two different world
TTITLE3=I remember clifford
TTITLE4=harlem blues
TTITLE5=Mr. Joe
TTITLE6=killer diller
TTITLE7=hard times
EXTD=
EXTT0=
EXTT1=
EXTT2=
EXTT3=
EXTT4=
EXTT5=
EXTT6=
EXTT7=
PLAYORDER=
